<svg width="56" height="32" viewBox="0 0 56 32" fill="none" xmlns="http://www.w3.org/2000/svg">
<g clip-path="url(#clip0_1478_62779)">
<path d="M0.328125 28.2222C0.328125 27.4709 0.478379 26.8124 0.778885 26.2468C1.08823 25.6723 1.51247 25.2304 2.05162 24.921C2.59076 24.6117 3.20945 24.457 3.90769 24.457C4.79153 24.457 5.5207 24.6691 6.0952 25.0934C6.67854 25.5088 7.07185 26.1054 7.27513 26.8831H5.64444C5.51186 26.5208 5.29974 26.2379 5.00807 26.0347C4.7164 25.8314 4.34961 25.7297 3.90769 25.7297C3.289 25.7297 2.79405 25.9507 2.42283 26.3926C2.06046 26.8257 1.87927 27.4355 1.87927 28.2222C1.87927 29.0088 2.06046 29.6231 2.42283 30.065C2.79405 30.5069 3.289 30.7279 3.90769 30.7279C4.78269 30.7279 5.36161 30.3434 5.64444 29.5745H7.27513C7.06301 30.3169 6.66528 30.9091 6.08194 31.351C5.49861 31.7841 4.77385 32.0006 3.90769 32.0006C3.20945 32.0006 2.59076 31.8459 2.05162 31.5366C1.51247 31.2184 1.08823 30.7765 0.778885 30.2108C0.478379 29.6363 0.328125 28.9734 0.328125 28.2222Z" fill="#47280A"/>
<path d="M7.75 28.1957C7.75 27.4621 7.90023 26.8124 8.2007 26.2468C8.50999 25.6811 8.92535 25.2436 9.44673 24.9343C9.97697 24.6161 10.5603 24.457 11.1965 24.457C11.7709 24.457 12.2702 24.5719 12.6944 24.8017C13.1274 25.0227 13.4721 25.3011 13.7283 25.6369V24.5763H15.2528V31.8813H13.7283V30.7942C13.4721 31.1389 13.123 31.4261 12.6812 31.6559C12.2393 31.8857 11.7356 32.0006 11.17 32.0006C10.5426 32.0006 9.96813 31.8415 9.44673 31.5233C8.92535 31.1963 8.50999 30.7455 8.2007 30.171C7.90023 29.5877 7.75 28.9292 7.75 28.1957ZM13.7283 28.2222C13.7283 27.7184 13.6223 27.2809 13.4103 26.9097C13.207 26.5384 12.9374 26.2556 12.6016 26.0612C12.2658 25.8667 11.9035 25.7695 11.5146 25.7695C11.1258 25.7695 10.7635 25.8667 10.4277 26.0612C10.0918 26.2468 9.8179 26.5252 9.60581 26.8964C9.40255 27.2588 9.30092 27.6919 9.30092 28.1957C9.30092 28.6994 9.40255 29.1414 9.60581 29.5214C9.8179 29.9015 10.0918 30.1931 10.4277 30.3964C10.7723 30.5909 11.1347 30.6881 11.5146 30.6881C11.9035 30.6881 12.2658 30.5909 12.6016 30.3964C12.9374 30.202 13.207 29.9191 13.4103 29.5479C13.6223 29.1679 13.7283 28.726 13.7283 28.2222Z" fill="#47280A"/>
<path d="M18.2145 25.6369C18.4354 25.2657 18.7271 24.9785 19.0895 24.7752C19.4607 24.5631 19.8982 24.457 20.402 24.457V26.0214H20.0175C19.4253 26.0214 18.9746 26.1717 18.6652 26.4722C18.3647 26.7727 18.2145 27.2941 18.2145 28.0366V31.8813H16.7031V24.5763H18.2145V25.6369Z" fill="#47280A"/>
<path d="M27.9557 28.0498C27.9557 28.3238 27.9381 28.5713 27.9027 28.7922H22.322C22.3662 29.3756 22.5828 29.844 22.9716 30.1976C23.3605 30.5511 23.8376 30.7279 24.4032 30.7279C25.2162 30.7279 25.7906 30.3876 26.1265 29.707H27.7569C27.536 30.3787 27.1339 30.9311 26.5506 31.3642C25.9762 31.7885 25.2604 32.0006 24.4032 32.0006C23.705 32.0006 23.0776 31.8459 22.5209 31.5366C21.9729 31.2184 21.5399 30.7765 21.2218 30.2108C20.9125 29.6363 20.7578 28.9734 20.7578 28.2222C20.7578 27.4709 20.9081 26.8124 21.2085 26.2468C21.5178 25.6723 21.9464 25.2304 22.4944 24.921C23.0511 24.6117 23.6874 24.457 24.4032 24.457C25.0925 24.457 25.7067 24.6073 26.2457 24.9078C26.7848 25.2083 27.2046 25.6325 27.5051 26.1805C27.8055 26.7196 27.9557 27.3427 27.9557 28.0498ZM26.3783 27.5725C26.3694 27.0157 26.1707 26.5694 25.7818 26.2335C25.393 25.8977 24.9113 25.7297 24.3369 25.7297C23.8155 25.7297 23.3692 25.8977 22.9981 26.2335C22.627 26.5605 22.406 27.0069 22.3353 27.5725H26.3783Z" fill="#47280A"/>
<path d="M8.23374 17.2266V20.8595H0.44186C0.197827 20.8595 0 20.6616 0 20.4176V2.98454H1.67877C3.14296 2.98454 4.32993 4.17167 4.32993 5.63607V15.4589C4.32993 16.4352 5.12124 17.2266 6.09736 17.2266H8.23374Z" fill="#EC8600"/>
<path d="M14.4821 7.82031V20.857H10.3359V11.8867C10.3359 10.7439 10.9659 9.69414 11.9745 9.15668L14.4821 7.82031Z" fill="#EC8600"/>
<path d="M28.4378 20.8604H24.2922V13.8315C24.2922 12.4231 23.1736 11.7518 22.1733 11.7518C21.1336 11.7518 20.0676 12.4231 20.0676 13.8315V20.8604H15.9219V9.14947L19.2313 8.34438C19.4923 8.28091 19.749 8.46297 19.7754 8.73024L19.857 9.55363C20.7519 8.42164 22.2786 7.96094 23.7658 7.96094C26.1479 7.96094 28.4378 9.63261 28.4378 12.6469V20.8604Z" fill="#EC8600"/>
<path d="M35.1576 7.96094C35.8946 7.96094 36.6053 8.05308 37.2765 8.2242C37.9477 8.39531 38.3013 8.24769 38.9541 8.19629C39.3759 8.16307 39.948 8.07449 40.3001 8.01598C40.4667 7.98828 40.6194 8.11644 40.6194 8.28538V9.59139C40.6194 9.59139 40.6194 10.6337 40.6194 11.0805C40.6194 11.5273 40.8958 12.0414 40.8958 12.66C40.8958 15.6874 38.3426 17.3591 35.1576 17.3591C34.6181 17.3591 34.1706 17.3065 33.7889 17.2143C33.5915 17.4644 33.4862 17.7013 33.4862 17.9646C33.4862 18.2805 33.7757 18.5438 34.1443 18.5438H37.6056C40.422 18.5438 42.5409 19.5704 42.5409 22.4136C42.5409 25.3884 39.5665 26.6388 35.6577 26.6388C32.0122 26.6388 29.1562 25.6648 29.1562 23.177C29.1562 22.045 29.867 21.1631 30.9462 20.5971C30.5514 20.3076 30.196 19.8074 30.196 18.8728C30.196 17.8856 30.8145 17.1222 31.6305 16.4772C30.3539 15.7006 29.4195 14.3975 29.4195 12.66C29.4195 9.63261 31.9728 7.96094 35.1576 7.96094ZM35.1576 10.8699C33.8942 10.8699 33.0782 11.528 33.0782 12.66C33.0782 13.792 33.8942 14.4502 35.1576 14.4502C36.421 14.4502 37.237 13.792 37.237 12.66C37.237 11.528 36.421 10.8699 35.1576 10.8699ZM37.5003 21.5712H33.1572C32.9729 21.7818 32.8413 22.0319 32.8413 22.3478C32.8413 23.1112 33.6704 23.4271 35.6314 23.4271C37.9477 23.4271 38.7374 23.1112 38.7374 22.4399C38.7374 21.9002 38.2636 21.5712 37.5003 21.5712Z" fill="#EC8600"/>
<path d="M49.1036 7.96094C53.0123 7.96094 55.8945 10.7778 55.8945 14.5423C55.8945 18.3068 53.0123 21.1236 49.1036 21.1236C45.1948 21.1236 42.3125 18.3068 42.3125 14.5423C42.3125 10.7778 45.1948 7.96094 49.1036 7.96094ZM49.1036 11.6333C47.5243 11.6333 46.4187 12.8311 46.4187 14.5423C46.4187 16.2534 47.5243 17.4513 49.1036 17.4513C50.6828 17.4513 51.7884 16.2534 51.7884 14.5423C51.7884 12.8311 50.6828 11.6333 49.1036 11.6333Z" fill="#EC8600"/>
<path d="M10.062 8.54729C9.34262 5.86202 11.3364 3.22685 14.1022 2.95027C15.2618 2.83431 16.3702 2.67812 17.1511 2.46885C19.1124 1.94326 20.7116 0.626218 21.3322 0.0598284C21.4576 -0.0545396 21.6662 0.00270443 21.7101 0.166602C22.4334 2.86628 20.4649 5.52697 17.6874 5.83544C16.5419 5.96266 15.4513 6.12294 14.6906 6.32052C12.6575 6.84866 11.0465 8.11653 10.4295 8.6552C10.3057 8.76338 10.1046 8.70618 10.062 8.54729Z" fill="url(#paint0_linear_1478_62779)"/>
</g>
<defs>
<linearGradient id="paint0_linear_1478_62779" x1="21.6385" y1="0.096322" x2="10.3845" y2="8.49457" gradientUnits="userSpaceOnUse">
<stop stop-color="#47280A"/>
<stop offset="1" stop-color="#EC8600"/>
</linearGradient>
<clipPath id="clip0_1478_62779">
<rect width="55.8906" height="32" fill="white"/>
</clipPath>
</defs>
</svg>
